<mxfile host="app.diagrams.net" agent="Mozilla/5.0 (Windows NT 10.0; Win64; x64) AppleWebKit/537.36 (KHTML, like Gecko) Chrome/138.0.0.0 YaBrowser/25.8.0.0 Safari/537.36" version="28.2.7">
  <diagram name="Страница — 1" id="9SJCnznICadPB8DR5V3s">
    <mxGraphModel dx="455" dy="1028" grid="1" gridSize="10" guides="1" tooltips="1" connect="1" arrows="1" fold="1" page="1" pageScale="1" pageWidth="827" pageHeight="1169" math="0" shadow="0">
      <root>
        <mxCell id="0" />
        <mxCell id="1" parent="0" />
        <mxCell id="bgdgGNUlHinSWnaCxkcL-25" style="edgeStyle=orthogonalEdgeStyle;rounded=0;orthogonalLoop=1;jettySize=auto;html=1;entryX=0.5;entryY=0;entryDx=0;entryDy=0;" edge="1" parent="1" source="bgdgGNUlHinSWnaCxkcL-5" target="bgdgGNUlHinSWnaCxkcL-13">
          <mxGeometry relative="1" as="geometry" />
        </mxCell>
        <mxCell id="bgdgGNUlHinSWnaCxkcL-28" style="edgeStyle=orthogonalEdgeStyle;rounded=0;orthogonalLoop=1;jettySize=auto;html=1;" edge="1" parent="1" source="bgdgGNUlHinSWnaCxkcL-5" target="bgdgGNUlHinSWnaCxkcL-17">
          <mxGeometry relative="1" as="geometry" />
        </mxCell>
        <mxCell id="bgdgGNUlHinSWnaCxkcL-5" value="Employee" style="swimlane;fontStyle=1;align=center;verticalAlign=top;childLayout=stackLayout;horizontal=1;startSize=26;horizontalStack=0;resizeParent=1;resizeParentMax=0;resizeLast=0;collapsible=1;marginBottom=0;whiteSpace=wrap;html=1;" vertex="1" parent="1">
          <mxGeometry x="60" y="340" width="160" height="210" as="geometry" />
        </mxCell>
        <mxCell id="bgdgGNUlHinSWnaCxkcL-6" value="&lt;div&gt;employeeId: int&lt;/div&gt;&lt;div&gt;firstName: String&amp;nbsp;&amp;nbsp;&lt;/div&gt;&lt;div&gt;lastName: String&lt;/div&gt;&lt;div&gt;position: String&lt;/div&gt;&lt;div&gt;salary: double&lt;/div&gt;&lt;div&gt;hireDate: Date&lt;/div&gt;&lt;div&gt;&lt;br&gt;&lt;/div&gt;" style="text;strokeColor=none;fillColor=none;align=left;verticalAlign=top;spacingLeft=4;spacingRight=4;overflow=hidden;rotatable=0;points=[[0,0.5],[1,0.5]];portConstraint=eastwest;whiteSpace=wrap;html=1;" vertex="1" parent="bgdgGNUlHinSWnaCxkcL-5">
          <mxGeometry y="26" width="160" height="104" as="geometry" />
        </mxCell>
        <mxCell id="bgdgGNUlHinSWnaCxkcL-7" value="" style="line;strokeWidth=1;fillColor=none;align=left;verticalAlign=middle;spacingTop=-1;spacingLeft=3;spacingRight=3;rotatable=0;labelPosition=right;points=[];portConstraint=eastwest;strokeColor=inherit;" vertex="1" parent="bgdgGNUlHinSWnaCxkcL-5">
          <mxGeometry y="130" width="160" height="8" as="geometry" />
        </mxCell>
        <mxCell id="bgdgGNUlHinSWnaCxkcL-8" value="&lt;div&gt;calculateSalary(): double&lt;/div&gt;&lt;div&gt;getWorkExperience(): int&lt;/div&gt;&lt;div&gt;promote(newPosition: String): void&lt;/div&gt;" style="text;strokeColor=none;fillColor=none;align=left;verticalAlign=top;spacingLeft=4;spacingRight=4;overflow=hidden;rotatable=0;points=[[0,0.5],[1,0.5]];portConstraint=eastwest;whiteSpace=wrap;html=1;" vertex="1" parent="bgdgGNUlHinSWnaCxkcL-5">
          <mxGeometry y="138" width="160" height="72" as="geometry" />
        </mxCell>
        <mxCell id="bgdgGNUlHinSWnaCxkcL-9" value="Department" style="swimlane;fontStyle=1;align=center;verticalAlign=top;childLayout=stackLayout;horizontal=1;startSize=26;horizontalStack=0;resizeParent=1;resizeParentMax=0;resizeLast=0;collapsible=1;marginBottom=0;whiteSpace=wrap;html=1;" vertex="1" parent="1">
          <mxGeometry x="310" y="340" width="180" height="210" as="geometry" />
        </mxCell>
        <mxCell id="bgdgGNUlHinSWnaCxkcL-10" value="&lt;div&gt;&lt;div&gt;departmentId: int&lt;/div&gt;&lt;div&gt;name: String&lt;/div&gt;&lt;div&gt;manager: Employee&lt;/div&gt;&lt;/div&gt;" style="text;strokeColor=none;fillColor=none;align=left;verticalAlign=top;spacingLeft=4;spacingRight=4;overflow=hidden;rotatable=0;points=[[0,0.5],[1,0.5]];portConstraint=eastwest;whiteSpace=wrap;html=1;" vertex="1" parent="bgdgGNUlHinSWnaCxkcL-9">
          <mxGeometry y="26" width="180" height="104" as="geometry" />
        </mxCell>
        <mxCell id="bgdgGNUlHinSWnaCxkcL-11" value="" style="line;strokeWidth=1;fillColor=none;align=left;verticalAlign=middle;spacingTop=-1;spacingLeft=3;spacingRight=3;rotatable=0;labelPosition=right;points=[];portConstraint=eastwest;strokeColor=inherit;" vertex="1" parent="bgdgGNUlHinSWnaCxkcL-9">
          <mxGeometry y="130" width="180" height="8" as="geometry" />
        </mxCell>
        <mxCell id="bgdgGNUlHinSWnaCxkcL-12" value="&lt;div&gt;addEmployee(employee: Employee): void&lt;/div&gt;&lt;div&gt;emoveEmployee(employee: Employee): void&lt;/div&gt;" style="text;strokeColor=none;fillColor=none;align=left;verticalAlign=top;spacingLeft=4;spacingRight=4;overflow=hidden;rotatable=0;points=[[0,0.5],[1,0.5]];portConstraint=eastwest;whiteSpace=wrap;html=1;" vertex="1" parent="bgdgGNUlHinSWnaCxkcL-9">
          <mxGeometry y="138" width="180" height="72" as="geometry" />
        </mxCell>
        <mxCell id="bgdgGNUlHinSWnaCxkcL-13" value="Salary" style="swimlane;fontStyle=1;align=center;verticalAlign=top;childLayout=stackLayout;horizontal=1;startSize=26;horizontalStack=0;resizeParent=1;resizeParentMax=0;resizeLast=0;collapsible=1;marginBottom=0;whiteSpace=wrap;html=1;" vertex="1" parent="1">
          <mxGeometry x="50" y="650" width="180" height="210" as="geometry" />
        </mxCell>
        <mxCell id="bgdgGNUlHinSWnaCxkcL-14" value="&lt;div&gt;salaryId: int&lt;/div&gt;&lt;div&gt;amount: double&lt;/div&gt;&lt;div&gt;paymentDate: Date&lt;/div&gt;&lt;div&gt;bonus: double&lt;/div&gt;" style="text;strokeColor=none;fillColor=none;align=left;verticalAlign=top;spacingLeft=4;spacingRight=4;overflow=hidden;rotatable=0;points=[[0,0.5],[1,0.5]];portConstraint=eastwest;whiteSpace=wrap;html=1;" vertex="1" parent="bgdgGNUlHinSWnaCxkcL-13">
          <mxGeometry y="26" width="180" height="104" as="geometry" />
        </mxCell>
        <mxCell id="bgdgGNUlHinSWnaCxkcL-15" value="" style="line;strokeWidth=1;fillColor=none;align=left;verticalAlign=middle;spacingTop=-1;spacingLeft=3;spacingRight=3;rotatable=0;labelPosition=right;points=[];portConstraint=eastwest;strokeColor=inherit;" vertex="1" parent="bgdgGNUlHinSWnaCxkcL-13">
          <mxGeometry y="130" width="180" height="8" as="geometry" />
        </mxCell>
        <mxCell id="bgdgGNUlHinSWnaCxkcL-16" value="&lt;div&gt;calculateTotal(): double&lt;/div&gt;&lt;div&gt;applyBonus(bonus: double): void&lt;/div&gt;" style="text;strokeColor=none;fillColor=none;align=left;verticalAlign=top;spacingLeft=4;spacingRight=4;overflow=hidden;rotatable=0;points=[[0,0.5],[1,0.5]];portConstraint=eastwest;whiteSpace=wrap;html=1;" vertex="1" parent="bgdgGNUlHinSWnaCxkcL-13">
          <mxGeometry y="138" width="180" height="72" as="geometry" />
        </mxCell>
        <mxCell id="bgdgGNUlHinSWnaCxkcL-17" value="WorkHistory" style="swimlane;fontStyle=1;align=center;verticalAlign=top;childLayout=stackLayout;horizontal=1;startSize=26;horizontalStack=0;resizeParent=1;resizeParentMax=0;resizeLast=0;collapsible=1;marginBottom=0;whiteSpace=wrap;html=1;" vertex="1" parent="1">
          <mxGeometry x="60" y="60" width="160" height="170" as="geometry" />
        </mxCell>
        <mxCell id="bgdgGNUlHinSWnaCxkcL-18" value="&lt;div&gt;&lt;div&gt;historyId: int&lt;/div&gt;&lt;div&gt;position: String&lt;/div&gt;&lt;div&gt;startDate: Date&lt;/div&gt;&lt;div&gt;endDate: Date&lt;/div&gt;&lt;/div&gt;" style="text;strokeColor=none;fillColor=none;align=left;verticalAlign=top;spacingLeft=4;spacingRight=4;overflow=hidden;rotatable=0;points=[[0,0.5],[1,0.5]];portConstraint=eastwest;whiteSpace=wrap;html=1;" vertex="1" parent="bgdgGNUlHinSWnaCxkcL-17">
          <mxGeometry y="26" width="160" height="104" as="geometry" />
        </mxCell>
        <mxCell id="bgdgGNUlHinSWnaCxkcL-19" value="" style="line;strokeWidth=1;fillColor=none;align=left;verticalAlign=middle;spacingTop=-1;spacingLeft=3;spacingRight=3;rotatable=0;labelPosition=right;points=[];portConstraint=eastwest;strokeColor=inherit;" vertex="1" parent="bgdgGNUlHinSWnaCxkcL-17">
          <mxGeometry y="130" width="160" height="8" as="geometry" />
        </mxCell>
        <mxCell id="bgdgGNUlHinSWnaCxkcL-20" value="getDuration(): int" style="text;strokeColor=none;fillColor=none;align=left;verticalAlign=top;spacingLeft=4;spacingRight=4;overflow=hidden;rotatable=0;points=[[0,0.5],[1,0.5]];portConstraint=eastwest;whiteSpace=wrap;html=1;" vertex="1" parent="bgdgGNUlHinSWnaCxkcL-17">
          <mxGeometry y="138" width="160" height="32" as="geometry" />
        </mxCell>
        <mxCell id="bgdgGNUlHinSWnaCxkcL-21" value="" style="edgeStyle=orthogonalEdgeStyle;rounded=0;orthogonalLoop=1;jettySize=auto;html=1;" edge="1" parent="1" source="bgdgGNUlHinSWnaCxkcL-6" target="bgdgGNUlHinSWnaCxkcL-10">
          <mxGeometry relative="1" as="geometry" />
        </mxCell>
        <mxCell id="bgdgGNUlHinSWnaCxkcL-22" value="1..1" style="text;html=1;whiteSpace=wrap;strokeColor=none;fillColor=none;align=center;verticalAlign=middle;rounded=0;" vertex="1" parent="1">
          <mxGeometry x="210" y="390" width="60" height="30" as="geometry" />
        </mxCell>
        <mxCell id="bgdgGNUlHinSWnaCxkcL-23" value="1..1" style="text;html=1;whiteSpace=wrap;strokeColor=none;fillColor=none;align=center;verticalAlign=middle;rounded=0;" vertex="1" parent="1">
          <mxGeometry x="260" y="390" width="60" height="30" as="geometry" />
        </mxCell>
        <mxCell id="bgdgGNUlHinSWnaCxkcL-24" value="работает в" style="text;html=1;whiteSpace=wrap;strokeColor=none;fillColor=none;align=center;verticalAlign=middle;rounded=0;" vertex="1" parent="1">
          <mxGeometry x="230" y="430" width="60" height="30" as="geometry" />
        </mxCell>
        <mxCell id="bgdgGNUlHinSWnaCxkcL-26" value="1..1" style="text;html=1;whiteSpace=wrap;strokeColor=none;fillColor=none;align=center;verticalAlign=middle;rounded=0;" vertex="1" parent="1">
          <mxGeometry x="80" y="550" width="60" height="30" as="geometry" />
        </mxCell>
        <mxCell id="bgdgGNUlHinSWnaCxkcL-27" value="1..*" style="text;html=1;whiteSpace=wrap;strokeColor=none;fillColor=none;align=center;verticalAlign=middle;rounded=0;" vertex="1" parent="1">
          <mxGeometry x="80" y="620" width="60" height="30" as="geometry" />
        </mxCell>
        <mxCell id="bgdgGNUlHinSWnaCxkcL-29" value="1..1" style="text;html=1;whiteSpace=wrap;strokeColor=none;fillColor=none;align=center;verticalAlign=middle;rounded=0;" vertex="1" parent="1">
          <mxGeometry x="90" y="310" width="60" height="30" as="geometry" />
        </mxCell>
        <mxCell id="bgdgGNUlHinSWnaCxkcL-30" value="1..*" style="text;html=1;whiteSpace=wrap;strokeColor=none;fillColor=none;align=center;verticalAlign=middle;rounded=0;" vertex="1" parent="1">
          <mxGeometry x="90" y="230" width="60" height="30" as="geometry" />
        </mxCell>
      </root>
    </mxGraphModel>
  </diagram>
</mxfile>
